# xmcd CD database file
#
# Track frame offsets:
#	150
#	25160
#	51315
#	92740
#	130513
#	154210
#	186685
#	206055
#	231473
#	250750
#	275860
#	298470
#
# Disc length: 4218 seconds
#
# Revision: 0
# Processed by: cddbd v1.5.2PL0 Copyright (c) Steve Scherf et al.
# Submitted via: CDex 1.70beta2
#
DISCID=c110780c
DTITLE=Kenny G - The Moment
DYEAR=1992
DGENRE=Jazz
TTITLE0=The Moment
TTITLE1=Passages
TTITLE2=Havana
TTITLE3=Always
TTITLE4=That Somebody Was You
TTITLE5=The Champions Theme
TTITLE6=Eastside Jam
TTITLE7=Moonlinght
TTITLE8=Getting on the Step
TTITLE9=Every Time I Close My Eyes
TTITLE10=Northern Lights
TTITLE11=Innocence
EXTD=YEAR: 1992
EXTT0=
EXTT1=
EXTT2=
EXTT3=
EXTT4=
EXTT5=
EXTT6=
EXTT7=
EXTT8=
EXTT9=
EXTT10=
EXTT11=
PLAYORDER=
